<mxfile host="app.diagrams.net" modified="2021-08-26T19:14:03.422Z" agent="5.0 (Macintosh; Intel Mac OS X 10_15_7) AppleWebKit/537.36 (KHTML, like Gecko) Chrome/92.0.4515.159 Safari/537.36" etag="aqbM8P78640ICh4-gxwr" version="14.9.9" type="github">
  <diagram id="fw3Vy5IciZAPTHHsCp0E" name="Page-1">
    <mxGraphModel dx="2267" dy="1068" grid="1" gridSize="10" guides="1" tooltips="1" connect="1" arrows="1" fold="1" page="1" pageScale="1" pageWidth="850" pageHeight="1100" math="0" shadow="0">
      <root>
        <mxCell id="0" />
        <mxCell id="1" parent="0" />
        <mxCell id="3oUCJ4FQO00tp80o263A-13" value="" style="rounded=0;whiteSpace=wrap;html=1;fillColor=#dae8fc;strokeColor=#6c8ebf;" parent="1" vertex="1">
          <mxGeometry x="30" y="30" width="170" height="550" as="geometry" />
        </mxCell>
        <mxCell id="3oUCJ4FQO00tp80o263A-10" value="" style="rounded=0;whiteSpace=wrap;html=1;fillColor=#dae8fc;strokeColor=#6c8ebf;" parent="1" vertex="1">
          <mxGeometry x="-446" y="30.5" width="190" height="669.5" as="geometry" />
        </mxCell>
        <mxCell id="78p_g_JebdCXJWxOakKT-2" value="External Partners" style="html=1;verticalLabelPosition=bottom;align=center;labelBackgroundColor=#ffffff;verticalAlign=top;strokeWidth=2;strokeColor=#0080F0;shadow=0;dashed=0;shape=mxgraph.ios7.icons.globe;" parent="1" vertex="1">
          <mxGeometry x="-812" y="21" width="40" height="40" as="geometry" />
        </mxCell>
        <mxCell id="78p_g_JebdCXJWxOakKT-3" value="Internal Apps&amp;nbsp;" style="shape=image;html=1;verticalAlign=top;verticalLabelPosition=bottom;labelBackgroundColor=#ffffff;imageAspect=0;aspect=fixed;image=https://cdn4.iconfinder.com/data/icons/iconsimple-logotypes/512/google_chrome-128.png" parent="1" vertex="1">
          <mxGeometry x="-820" y="281" width="42" height="42" as="geometry" />
        </mxCell>
        <mxCell id="78p_g_JebdCXJWxOakKT-4" value="Gateway" style="outlineConnect=0;dashed=0;verticalLabelPosition=bottom;verticalAlign=top;align=center;html=1;shape=mxgraph.aws3.internet_gateway;fillColor=#F58534;gradientColor=none;" parent="1" vertex="1">
          <mxGeometry x="-712" y="51" width="47.92" height="50" as="geometry" />
        </mxCell>
        <mxCell id="78p_g_JebdCXJWxOakKT-5" value="" style="endArrow=classic;html=1;" parent="1" edge="1">
          <mxGeometry width="50" height="50" relative="1" as="geometry">
            <mxPoint x="-769" y="41" as="sourcePoint" />
            <mxPoint x="-709" y="70.20634920634916" as="targetPoint" />
          </mxGeometry>
        </mxCell>
        <mxCell id="78p_g_JebdCXJWxOakKT-10" value="PlatAPI" style="points=[[0,0,0],[0.25,0,0],[0.5,0,0],[0.75,0,0],[1,0,0],[0,1,0],[0.25,1,0],[0.5,1,0],[0.75,1,0],[1,1,0],[0,0.25,0],[0,0.5,0],[0,0.75,0],[1,0.25,0],[1,0.5,0],[1,0.75,0]];outlineConnect=0;fontColor=#232F3E;gradientColor=#F54749;gradientDirection=north;fillColor=#C7131F;strokeColor=#ffffff;dashed=0;verticalLabelPosition=bottom;verticalAlign=top;align=center;html=1;fontSize=12;fontStyle=0;aspect=fixed;shape=mxgraph.aws4.resourceIcon;resIcon=mxgraph.aws4.api_gateway;" parent="1" vertex="1">
          <mxGeometry x="-390" y="90.5" width="78" height="78" as="geometry" />
        </mxCell>
        <mxCell id="78p_g_JebdCXJWxOakKT-11" value="Shim" style="points=[[0,0,0],[0.25,0,0],[0.5,0,0],[0.75,0,0],[1,0,0],[0,1,0],[0.25,1,0],[0.5,1,0],[0.75,1,0],[1,1,0],[0,0.25,0],[0,0.5,0],[0,0.75,0],[1,0.25,0],[1,0.5,0],[1,0.75,0]];outlineConnect=0;fontColor=#232F3E;gradientColor=#945DF2;gradientDirection=north;fillColor=#5A30B5;strokeColor=#ffffff;dashed=0;verticalLabelPosition=bottom;verticalAlign=top;align=center;html=1;fontSize=12;fontStyle=0;aspect=fixed;shape=mxgraph.aws4.resourceIcon;resIcon=mxgraph.aws4.api_gateway;" parent="1" vertex="1">
          <mxGeometry x="-397" y="300.5" width="78" height="78" as="geometry" />
        </mxCell>
        <mxCell id="78p_g_JebdCXJWxOakKT-13" value="" style="endArrow=classic;html=1;" parent="1" source="78p_g_JebdCXJWxOakKT-4" edge="1">
          <mxGeometry width="50" height="50" relative="1" as="geometry">
            <mxPoint x="-522.0799999999999" y="80.5" as="sourcePoint" />
            <mxPoint x="-390" y="120.5" as="targetPoint" />
          </mxGeometry>
        </mxCell>
        <mxCell id="78p_g_JebdCXJWxOakKT-14" value="" style="endArrow=classic;html=1;exitX=1;exitY=0.5;exitDx=0;exitDy=0;" parent="1" source="78p_g_JebdCXJWxOakKT-3" edge="1">
          <mxGeometry width="50" height="50" relative="1" as="geometry">
            <mxPoint x="-512.0799999999999" y="90.5" as="sourcePoint" />
            <mxPoint x="-380" y="130.5" as="targetPoint" />
          </mxGeometry>
        </mxCell>
        <mxCell id="78p_g_JebdCXJWxOakKT-16" value="" style="endArrow=classic;html=1;exitX=1;exitY=0.75;exitDx=0;exitDy=0;entryX=0;entryY=0.5;entryDx=0;entryDy=0;entryPerimeter=0;" parent="1" source="78p_g_JebdCXJWxOakKT-3" target="78p_g_JebdCXJWxOakKT-11" edge="1">
          <mxGeometry width="50" height="50" relative="1" as="geometry">
            <mxPoint x="-297" y="470.5" as="sourcePoint" />
            <mxPoint x="-247" y="420.5" as="targetPoint" />
          </mxGeometry>
        </mxCell>
        <mxCell id="0akm0-Bwmb5cYnvaE7G2-17" value="" style="edgeStyle=orthogonalEdgeStyle;rounded=0;orthogonalLoop=1;jettySize=auto;html=1;" edge="1" parent="1" source="5U_DJ9Q78XYDxXpljlRY-1" target="0akm0-Bwmb5cYnvaE7G2-12">
          <mxGeometry relative="1" as="geometry" />
        </mxCell>
        <mxCell id="5U_DJ9Q78XYDxXpljlRY-1" value="CES" style="strokeWidth=2;html=1;shape=mxgraph.flowchart.database;whiteSpace=wrap;fillColor=#fa6800;strokeColor=#C73500;fontColor=#000000;" parent="1" vertex="1">
          <mxGeometry x="90" y="130.5" width="60" height="60" as="geometry" />
        </mxCell>
        <mxCell id="5U_DJ9Q78XYDxXpljlRY-2" value="NES" style="strokeWidth=2;html=1;shape=mxgraph.flowchart.database;whiteSpace=wrap;fillColor=#1ba1e2;strokeColor=#006EAF;fontColor=#ffffff;" parent="1" vertex="1">
          <mxGeometry x="90" y="370" width="60" height="60" as="geometry" />
        </mxCell>
        <mxCell id="5U_DJ9Q78XYDxXpljlRY-9" value="" style="edgeStyle=orthogonalEdgeStyle;rounded=0;orthogonalLoop=1;jettySize=auto;html=1;" parent="1" source="5U_DJ9Q78XYDxXpljlRY-3" target="5U_DJ9Q78XYDxXpljlRY-8" edge="1">
          <mxGeometry relative="1" as="geometry" />
        </mxCell>
        <mxCell id="5U_DJ9Q78XYDxXpljlRY-3" value="CRM" style="shape=image;html=1;verticalAlign=top;verticalLabelPosition=bottom;labelBackgroundColor=#ffffff;imageAspect=0;aspect=fixed;image=https://cdn0.iconfinder.com/data/icons/mozilla-icons/128/firefox_png.png" parent="1" vertex="1">
          <mxGeometry x="-820" y="555.5" width="48" height="48" as="geometry" />
        </mxCell>
        <mxCell id="5U_DJ9Q78XYDxXpljlRY-5" value="C360" style="points=[[0,0,0],[0.25,0,0],[0.5,0,0],[0.75,0,0],[1,0,0],[0,1,0],[0.25,1,0],[0.5,1,0],[0.75,1,0],[1,1,0],[0,0.25,0],[0,0.5,0],[0,0.75,0],[1,0.25,0],[1,0.5,0],[1,0.75,0]];outlineConnect=0;fontColor=#232F3E;gradientDirection=north;strokeColor=#ffffff;dashed=0;verticalLabelPosition=bottom;verticalAlign=top;align=center;html=1;fontSize=12;fontStyle=0;aspect=fixed;shape=mxgraph.aws4.resourceIcon;resIcon=mxgraph.aws4.api_gateway;fillColor=#00FF00;gradientColor=#006600;" parent="1" vertex="1">
          <mxGeometry x="-390" y="540" width="78" height="78" as="geometry" />
        </mxCell>
        <mxCell id="5U_DJ9Q78XYDxXpljlRY-8" value="" style="shape=waypoint;size=6;pointerEvents=1;points=[];fillColor=#ffffff;resizable=0;rotatable=0;perimeter=centerPerimeter;snapToPoint=1;verticalAlign=top;labelBackgroundColor=#ffffff;" parent="1" vertex="1">
          <mxGeometry x="-410" y="559" width="40" height="40" as="geometry" />
        </mxCell>
        <mxCell id="5U_DJ9Q78XYDxXpljlRY-21" value="" style="shape=waypoint;size=6;pointerEvents=1;points=[];fillColor=#DF8C42;resizable=0;rotatable=0;perimeter=centerPerimeter;snapToPoint=1;shadow=0;dashed=0;verticalAlign=top;strokeColor=none;" parent="1" vertex="1">
          <mxGeometry x="10" y="225" width="40" height="40" as="geometry" />
        </mxCell>
        <mxCell id="3oUCJ4FQO00tp80o263A-1" value="C360 DB" style="strokeWidth=2;html=1;shape=mxgraph.flowchart.database;whiteSpace=wrap;fillColor=#00FF00;gradientColor=#006600;" parent="1" vertex="1">
          <mxGeometry x="90" y="470" width="60" height="60" as="geometry" />
        </mxCell>
        <mxCell id="3oUCJ4FQO00tp80o263A-5" value="" style="shape=waypoint;size=6;pointerEvents=1;points=[];fillColor=#00FF00;resizable=0;rotatable=0;perimeter=centerPerimeter;snapToPoint=1;dashed=0;fontColor=#232F3E;fontStyle=0;verticalAlign=top;strokeColor=#ffffff;gradientColor=#006600;gradientDirection=north;" parent="1" vertex="1">
          <mxGeometry x="-245" y="637.5" width="40" height="40" as="geometry" />
        </mxCell>
        <mxCell id="3oUCJ4FQO00tp80o263A-12" value="" style="group" parent="1" vertex="1" connectable="0">
          <mxGeometry x="-150" y="115" width="110" height="205" as="geometry" />
        </mxCell>
        <mxCell id="5U_DJ9Q78XYDxXpljlRY-15" value="eComm Services" style="rounded=0;whiteSpace=wrap;html=1;fillColor=#f5f5f5;strokeColor=#666666;fontColor=#333333;" parent="3oUCJ4FQO00tp80o263A-12" vertex="1">
          <mxGeometry width="110" height="205" as="geometry" />
        </mxCell>
        <mxCell id="5U_DJ9Q78XYDxXpljlRY-13" value="&lt;font size=&quot;1&quot;&gt;SOAP&lt;/font&gt;" style="aspect=fixed;perimeter=ellipsePerimeter;html=1;align=center;shadow=0;dashed=0;spacingTop=3;image;image=img/lib/active_directory/windows_server_2.svg;fillColor=#00FF00;gradientColor=#006600;" parent="3oUCJ4FQO00tp80o263A-12" vertex="1">
          <mxGeometry x="29.333333333333332" y="3.153846153846154" width="44.15384615384615" height="55.19230769230769" as="geometry" />
        </mxCell>
        <mxCell id="5U_DJ9Q78XYDxXpljlRY-20" value="" style="rounded=0;orthogonalLoop=1;jettySize=auto;html=1;edgeStyle=orthogonalEdgeStyle;" parent="3oUCJ4FQO00tp80o263A-12" source="5U_DJ9Q78XYDxXpljlRY-17" target="5U_DJ9Q78XYDxXpljlRY-13" edge="1">
          <mxGeometry relative="1" as="geometry" />
        </mxCell>
        <mxCell id="5U_DJ9Q78XYDxXpljlRY-17" value="" style="pointerEvents=1;shadow=0;dashed=0;html=1;strokeColor=none;fillColor=#DF8C42;labelPosition=center;verticalLabelPosition=bottom;verticalAlign=top;align=center;outlineConnect=0;shape=mxgraph.veeam2.restful_api;" parent="3oUCJ4FQO00tp80o263A-12" vertex="1">
          <mxGeometry x="16.041666666666664" y="134.03846153846155" width="77.91666666666666" height="55.19230769230769" as="geometry" />
        </mxCell>
        <mxCell id="0akm0-Bwmb5cYnvaE7G2-3" value="" style="endArrow=classic;html=1;exitX=1;exitY=0.5;exitDx=0;exitDy=0;exitPerimeter=0;edgeStyle=orthogonalEdgeStyle;" edge="1" parent="1" source="5U_DJ9Q78XYDxXpljlRY-5" target="3oUCJ4FQO00tp80o263A-1">
          <mxGeometry width="50" height="50" relative="1" as="geometry">
            <mxPoint x="-200" y="570" as="sourcePoint" />
            <mxPoint x="-150" y="520" as="targetPoint" />
            <Array as="points">
              <mxPoint x="-312" y="600" />
              <mxPoint x="120" y="600" />
            </Array>
          </mxGeometry>
        </mxCell>
        <mxCell id="0akm0-Bwmb5cYnvaE7G2-4" value="" style="endArrow=classic;html=1;edgeStyle=orthogonalEdgeStyle;" edge="1" parent="1" source="78p_g_JebdCXJWxOakKT-10" target="5U_DJ9Q78XYDxXpljlRY-13">
          <mxGeometry width="50" height="50" relative="1" as="geometry">
            <mxPoint x="-230" y="150" as="sourcePoint" />
            <mxPoint x="-150" y="520" as="targetPoint" />
          </mxGeometry>
        </mxCell>
        <mxCell id="0akm0-Bwmb5cYnvaE7G2-8" value="cancel/patch" style="edgeLabel;html=1;align=center;verticalAlign=middle;resizable=0;points=[];" vertex="1" connectable="0" parent="0akm0-Bwmb5cYnvaE7G2-4">
          <mxGeometry x="-0.222" y="2" relative="1" as="geometry">
            <mxPoint x="22" y="2" as="offset" />
          </mxGeometry>
        </mxCell>
        <mxCell id="0akm0-Bwmb5cYnvaE7G2-5" value="" style="endArrow=classic;html=1;entryX=0.65;entryY=-0.008;entryDx=0;entryDy=0;entryPerimeter=0;exitX=0.5;exitY=0;exitDx=0;exitDy=0;exitPerimeter=0;edgeStyle=orthogonalEdgeStyle;" edge="1" parent="1" source="78p_g_JebdCXJWxOakKT-10" target="5U_DJ9Q78XYDxXpljlRY-1">
          <mxGeometry width="50" height="50" relative="1" as="geometry">
            <mxPoint x="-302" y="129.79045643153518" as="sourcePoint" />
            <mxPoint x="110" y="170" as="targetPoint" />
          </mxGeometry>
        </mxCell>
        <mxCell id="0akm0-Bwmb5cYnvaE7G2-7" value="stored procs" style="edgeLabel;html=1;align=center;verticalAlign=middle;resizable=0;points=[];" vertex="1" connectable="0" parent="0akm0-Bwmb5cYnvaE7G2-5">
          <mxGeometry x="0.2011" y="2" relative="1" as="geometry">
            <mxPoint y="1" as="offset" />
          </mxGeometry>
        </mxCell>
        <mxCell id="0akm0-Bwmb5cYnvaE7G2-6" value="" style="endArrow=classic;html=1;edgeStyle=orthogonalEdgeStyle;" edge="1" parent="1" source="78p_g_JebdCXJWxOakKT-11" target="5U_DJ9Q78XYDxXpljlRY-17">
          <mxGeometry width="50" height="50" relative="1" as="geometry">
            <mxPoint x="-200" y="370" as="sourcePoint" />
            <mxPoint x="-150" y="320" as="targetPoint" />
          </mxGeometry>
        </mxCell>
        <mxCell id="0akm0-Bwmb5cYnvaE7G2-10" value="" style="endArrow=classic;html=1;edgeStyle=orthogonalEdgeStyle;" edge="1" parent="1" source="3oUCJ4FQO00tp80o263A-1" target="5U_DJ9Q78XYDxXpljlRY-1">
          <mxGeometry width="50" height="50" relative="1" as="geometry">
            <mxPoint x="-200" y="370" as="sourcePoint" />
            <mxPoint x="-150" y="320" as="targetPoint" />
            <Array as="points">
              <mxPoint x="180" y="500" />
              <mxPoint x="180" y="160.5" />
            </Array>
          </mxGeometry>
        </mxCell>
        <mxCell id="0akm0-Bwmb5cYnvaE7G2-11" value="" style="endArrow=classic;html=1;edgeStyle=orthogonalEdgeStyle;" edge="1" parent="1" source="3oUCJ4FQO00tp80o263A-1" target="5U_DJ9Q78XYDxXpljlRY-2">
          <mxGeometry width="50" height="50" relative="1" as="geometry">
            <mxPoint x="-200" y="370" as="sourcePoint" />
            <mxPoint x="-150" y="320" as="targetPoint" />
            <Array as="points">
              <mxPoint x="70" y="500" />
              <mxPoint x="70" y="410" />
            </Array>
          </mxGeometry>
        </mxCell>
        <mxCell id="0akm0-Bwmb5cYnvaE7G2-12" value="Datalake" style="strokeWidth=2;html=1;shape=mxgraph.flowchart.database;whiteSpace=wrap;fillColor=#fff2cc;strokeColor=#d6b656;" vertex="1" parent="1">
          <mxGeometry x="90" y="250" width="60" height="60" as="geometry" />
        </mxCell>
        <mxCell id="0akm0-Bwmb5cYnvaE7G2-13" value="" style="endArrow=classic;html=1;edgeStyle=orthogonalEdgeStyle;" edge="1" parent="1" source="78p_g_JebdCXJWxOakKT-11" target="0akm0-Bwmb5cYnvaE7G2-12">
          <mxGeometry width="50" height="50" relative="1" as="geometry">
            <mxPoint x="-200" y="400" as="sourcePoint" />
            <mxPoint x="-150" y="350" as="targetPoint" />
            <Array as="points">
              <mxPoint x="120" y="330" />
            </Array>
          </mxGeometry>
        </mxCell>
        <mxCell id="0akm0-Bwmb5cYnvaE7G2-19" value="&lt;br&gt;" style="edgeLabel;html=1;align=center;verticalAlign=middle;resizable=0;points=[];" vertex="1" connectable="0" parent="0akm0-Bwmb5cYnvaE7G2-13">
          <mxGeometry x="0.8119" y="1" relative="1" as="geometry">
            <mxPoint as="offset" />
          </mxGeometry>
        </mxCell>
        <mxCell id="0akm0-Bwmb5cYnvaE7G2-21" value="" style="endArrow=classic;html=1;" edge="1" parent="1">
          <mxGeometry width="50" height="50" relative="1" as="geometry">
            <mxPoint x="138" y="369" as="sourcePoint" />
            <mxPoint x="138" y="310" as="targetPoint" />
          </mxGeometry>
        </mxCell>
        <mxCell id="0akm0-Bwmb5cYnvaE7G2-22" value="" style="endArrow=classic;html=1;edgeStyle=orthogonalEdgeStyle;curved=1;entryX=0.117;entryY=0.925;entryDx=0;entryDy=0;entryPerimeter=0;" edge="1" parent="1" target="5U_DJ9Q78XYDxXpljlRY-1">
          <mxGeometry width="50" height="50" relative="1" as="geometry">
            <mxPoint x="-60" y="281" as="sourcePoint" />
            <mxPoint x="-10" y="231" as="targetPoint" />
            <Array as="points">
              <mxPoint x="50" y="281" />
              <mxPoint x="50" y="200" />
              <mxPoint x="97" y="200" />
            </Array>
          </mxGeometry>
        </mxCell>
        <mxCell id="0akm0-Bwmb5cYnvaE7G2-23" style="edgeStyle=orthogonalEdgeStyle;curved=1;rounded=0;orthogonalLoop=1;jettySize=auto;html=1;entryX=-0.025;entryY=0.4;entryDx=0;entryDy=0;entryPerimeter=0;" edge="1" parent="1" source="5U_DJ9Q78XYDxXpljlRY-21" target="5U_DJ9Q78XYDxXpljlRY-21">
          <mxGeometry relative="1" as="geometry" />
        </mxCell>
        <mxCell id="0akm0-Bwmb5cYnvaE7G2-25" value="" style="endArrow=classic;html=1;" edge="1" parent="1">
          <mxGeometry width="50" height="50" relative="1" as="geometry">
            <mxPoint x="-77" y="141" as="sourcePoint" />
            <mxPoint x="90" y="140.5" as="targetPoint" />
          </mxGeometry>
        </mxCell>
      </root>
    </mxGraphModel>
  </diagram>
</mxfile>
